<svg id="Capa_1" enable-background="new 0 0 512 512" height="512" viewBox="0 0 512 512" width="512" xmlns="http://www.w3.org/2000/svg"><g><path d="m482.563 214.872c0-26.218-21.279-47.472-47.527-47.472h-20.703l-8.098 2.348-8.42-2.348h-45.39c-11.564 0-18.642-12.51-12.846-22.505 8.245-14.217 12.966-30.731 12.966-48.35 0-53.32-43.224-96.545-96.545-96.545s-96.545 43.225-96.545 96.546c0 17.618 4.721 34.132 12.966 48.35 5.796 9.995-1.281 22.505-12.846 22.505h-54.295l-9.201 3.945-7.317-3.945h-11.798c-26.248 0-47.527 21.254-47.527 47.472 0 26.218 21.279 47.472 47.527 47.472h11.797l7.891-2.165 8.638 2.165h45.603c8.834 0 15.996 7.153 15.996 15.977v74.513c0 7.296-1.921 14.464-5.57 20.785l-13.698 23.725-1.284 9.049-7.043 5.374-16.8 29.099c-13.092 22.676-5.317 51.659 17.372 64.759 22.722 13.118 51.788 5.339 64.899-17.37l5.62-9.734 1.256-9.799 7.481-5.335 23.944-41.472c5.745-9.95 20.122-9.95 25.866 0l23.944 41.473 5.966 5.241 2.771 9.892 5.62 9.734c13.111 22.708 42.178 30.488 64.899 17.37 22.689-13.1 30.464-42.083 17.372-64.759l-16.801-29.1-6.484-6.364-1.842-8.058-13.697-23.725c-3.649-6.321-5.57-13.489-5.57-20.785v-74.513c0-8.824 7.162-15.977 15.996-15.977h36.708l7.275-2.564 9.254 2.564h20.692c26.25-.001 47.528-21.255 47.528-47.473z" fill="#d1a08f"/><g fill="#c68d7a"><path d="m238.028 421.917c-5.745-9.95-20.121-9.95-25.866 0l-38.301 66.34c-5.964 10.329-15.233 17.557-25.701 21.147 21.083 7.282 45.046-1.124 56.606-21.147l5.62-9.734 1.256-9.799 7.481-5.335 21.424-37.108z"/><path d="m321.64 96.546c0 17.618-4.721 34.132-12.966 48.35-5.796 9.995 1.281 22.505 12.846 22.505h30.905c-11.564 0-18.642-12.51-12.845-22.505 8.245-14.217 12.966-30.731 12.966-48.35-.001-53.321-43.225-96.546-96.546-96.546-5.26 0-10.421.427-15.453 1.237 45.974 7.397 81.093 47.248 81.093 95.309z"/><path d="m435.036 167.4h-30.905c26.248 0 47.527 21.254 47.527 47.472 0 22.743-16.012 41.75-37.389 46.39-3.267.709-6.658 1.082-10.138 1.082l8.342-.261 1.872.261h20.692c26.248 0 47.527-21.254 47.527-47.472-.001-26.218-21.279-47.472-47.528-47.472z"/><path d="m350.681 373.62c-3.649-6.321-5.57-13.489-5.57-20.785v-74.514c0-8.824 7.162-15.977 15.996-15.977h-30.905c-8.834 0-15.996 7.153-15.996 15.977v74.514c0 7.296 1.921 14.464 5.57 20.785l38.825 67.247c13.092 22.676 5.317 51.659-17.372 64.759-2.687 1.551-5.465 2.801-8.293 3.777 12.545 4.302 26.812 3.374 39.198-3.777 22.689-13.1 30.464-42.083 17.372-64.759l-16.801-29.1-6.484-6.364-1.842-8.058z"/></g><g><g><circle cx="225.095" cy="75.718" fill="#fddeb0" r="15.968"/></g><g><circle cx="286.905" cy="75.718" fill="#fddeb0" r="15.968"/></g><g fill="#fdd79b"><path d="m286.905 59.751c-2.804 0-5.436.728-7.726 1.997 4.913 2.723 8.241 7.956 8.241 13.971s-3.329 11.248-8.241 13.971c2.29 1.269 4.922 1.997 7.726 1.997 8.819 0 15.968-7.149 15.968-15.968s-7.149-15.968-15.968-15.968z"/><path d="m225.095 59.751c-2.804 0-5.436.728-7.726 1.997 4.913 2.723 8.241 7.956 8.241 13.971s-3.329 11.248-8.241 13.971c2.29 1.269 4.922 1.997 7.726 1.997 8.819 0 15.968-7.149 15.968-15.968s-7.15-15.968-15.968-15.968z"/></g></g><g><path d="m202.463 125.986c-2.159-3.68-.927-8.414 2.754-10.574 3.678-2.16 8.413-.927 10.574 2.754 8.687 14.805 24.599 23.694 41.547 23.217 25.412-.727 38.331-22.294 38.868-23.212 2.156-3.682 6.891-4.918 10.572-2.762 3.682 2.156 4.919 6.89 2.762 10.572-.714 1.219-17.883 29.879-51.761 30.849-22.523.645-43.754-11.139-55.316-30.844z" fill="#fddeb0"/></g><g><g><circle cx="256" cy="226.125" fill="#fddeb0" r="15.968"/></g><g><circle cx="256" cy="287.936" fill="#fddeb0" r="15.968"/></g><g><circle cx="256" cy="349.746" fill="#fddeb0" r="15.968"/></g><g fill="#fdd79b"><path d="m256 333.779c-2.804 0-5.436.728-7.726 1.997 4.913 2.723 8.241 7.956 8.241 13.971s-3.329 11.248-8.241 13.971c2.29 1.269 4.922 1.997 7.726 1.997 8.819 0 15.968-7.149 15.968-15.968s-7.149-15.968-15.968-15.968z"/><path d="m256 271.968c-2.804 0-5.436.728-7.726 1.997 4.913 2.723 8.241 7.956 8.241 13.971s-3.329 11.248-8.241 13.971c2.29 1.269 4.922 1.997 7.726 1.997 8.819 0 15.968-7.149 15.968-15.968s-7.149-15.968-15.968-15.968z"/><path d="m256 210.157c-2.804 0-5.436.728-7.726 1.997 4.913 2.723 8.241 7.956 8.241 13.971s-3.329 11.248-8.241 13.971c2.29 1.269 4.922 1.997 7.726 1.997 8.819 0 15.968-7.149 15.968-15.968s-7.149-15.968-15.968-15.968z"/></g></g><g fill="#fddeb0"><path d="m414.334 167.4h-16.518c-.786 2.044-1.196 4.221-1.196 6.526 0 8.747 5.402 13.22 8.978 16.18 3.093 2.56 3.384 3.065 3.384 4.29 0 1.224-.292 1.729-3.384 4.289-3.575 2.96-8.978 7.433-8.978 16.18 0 8.753 5.403 13.228 8.978 16.19 3.092 2.561 3.384 3.065 3.384 4.29 0 1.218-.291 1.72-3.38 4.277-3.577 2.962-8.982 7.437-8.982 16.192 0 2.308.41 4.487 1.195 6.53h16.53c.001-1.692-.547-3.395-1.685-4.82-.398-.498-.587-.881-.587-1.71 0-1.224.292-1.729 3.384-4.289 3.575-2.96 8.978-7.433 8.978-16.18 0-8.753-5.403-13.229-8.979-16.191-3.092-2.561-3.383-3.065-3.383-4.29 0-1.218.291-1.72 3.38-4.277 3.577-2.962 8.982-7.437 8.982-16.192 0-8.756-5.405-13.231-8.983-16.193-3.088-2.557-3.379-3.059-3.379-4.277 0-.831.184-1.202.595-1.721 1.127-1.422 1.668-3.119 1.666-4.804z"/><path d="m103.605 257.524c-.398-.498-.587-.881-.587-1.71 0-1.224.292-1.729 3.384-4.289 3.575-2.96 8.978-7.433 8.978-16.18 0-8.753-5.403-13.229-8.979-16.191-3.092-2.561-3.383-3.065-3.383-4.29 0-1.218.291-1.72 3.38-4.277 3.577-2.962 8.982-7.437 8.982-16.192 0-8.756-5.405-13.231-8.983-16.193-3.088-2.557-3.379-3.059-3.379-4.277 0-.831.184-1.202.595-1.721 1.128-1.423 1.669-3.12 1.667-4.804h-16.519c-.786 2.044-1.196 4.221-1.196 6.526 0 8.747 5.402 13.22 8.978 16.18 3.093 2.56 3.384 3.065 3.384 4.29 0 1.224-.292 1.729-3.384 4.289-3.575 2.96-8.978 7.433-8.978 16.18 0 8.753 5.403 13.228 8.978 16.19 3.092 2.561 3.384 3.065 3.384 4.29 0 1.218-.291 1.72-3.38 4.277-3.577 2.962-8.982 7.437-8.982 16.192 0 2.308.41 4.487 1.195 6.53h16.53c.001-1.692-.547-3.395-1.685-4.82z"/></g><g><path d="m364.378 397.345c-3.371.309-7.488 1.514-11.261 5.288-6.191 6.191-5.533 13.176-5.098 17.798.376 3.994.225 4.557-.64 5.423-.866.866-1.43 1.017-5.423.64-4.621-.434-11.607-1.093-17.798 5.098-6.186 6.186-5.528 13.17-5.093 17.792.376 3.994.227 4.556-.635 5.418-.866.867-1.429 1.017-5.427.64-4.623-.434-11.611-1.093-17.793 5.099-.893.893-1.662 1.848-2.333 2.85l8.737 15.133c1.975-1.156 3.421-3.171 3.757-5.614.061-.444.156-.833.77-1.446.863-.862 1.424-1.011 5.414-.636 4.623.435 11.611 1.092 17.801-5.098 6.186-6.186 5.528-13.17 5.093-17.792-.376-3.994-.227-4.556.635-5.417.865-.866 1.428-1.017 5.423-.64 4.621.434 11.606 1.093 17.797-5.098s5.533-13.176 5.098-17.798c-.376-3.994-.225-4.557.641-5.423.679-.68 1.14-.998 4.159-.758 1.635.126 3.188-.266 4.501-1.034z" fill="#fddeb0"/><path d="m364.378 397.345c-3.371.309-7.488 1.514-11.261 5.288-6.191 6.191-5.533 13.176-5.098 17.798.095 1.005.156 1.792.181 2.422l8.75 15.156c.455-.379.908-.781 1.355-1.229 6.191-6.191 5.533-13.176 5.098-17.798-.376-3.994-.225-4.557.641-5.423.679-.68 1.14-.998 4.159-.758 1.635.126 3.188-.266 4.501-1.034z" fill="#fdd79b"/><path d="m216.793 460.543c-6.186-6.195-13.174-5.538-17.797-5.103-3.996.377-4.56.227-5.427-.64-.862-.862-1.011-1.423-.635-5.418.435-4.622 1.093-11.607-5.093-17.793-6.191-6.19-13.175-5.531-17.798-5.098-3.993.376-4.557.226-5.423-.64s-1.016-1.429-.64-5.423c.435-4.622 1.093-11.607-5.098-17.797-3.773-3.774-7.89-4.979-11.262-5.288l-8.327 14.423c1.314.769 2.867 1.161 4.502 1.033 3.017-.239 3.479.078 4.159.759.866.865 1.016 1.428.64 5.422-.435 4.622-1.093 11.607 5.098 17.798s13.177 5.533 17.797 5.098c3.995-.377 4.557-.226 5.423.64.862.862 1.011 1.423.635 5.418-.435 4.622-1.093 11.607 5.093 17.792 6.191 6.191 13.18 5.535 17.802 5.098 3.993-.375 4.553-.226 5.419.64.61.61.705.998.766 1.442.337 2.443 1.782 4.458 3.757 5.614l8.737-15.133c-.668-.999-1.436-1.953-2.328-2.844z" fill="#fddeb0"/><path d="m216.793 460.543c-6.186-6.195-13.174-5.538-17.797-5.103-3.996.377-4.56.227-5.427-.64-.089-.089-.169-.175-.243-.262l-7.819 13.543c5.394 3.625 11.016 3.114 14.936 2.743 3.993-.375 4.553-.226 5.419.64.61.61.705.998.766 1.442.337 2.443 1.782 4.458 3.757 5.614l8.737-15.133c-.669-.999-1.437-1.953-2.329-2.844z" fill="#fdd79b"/></g></g></svg>